<?xml version="1.0" encoding="UTF-8" standalone="no"?>
<!DOCTYPE svg PUBLIC "-//W3C//DTD SVG 1.1//EN" "http://www.w3.org/Graphics/SVG/1.1/DTD/svg11.dtd">
<svg width="100%" height="100%" viewBox="0 0 220 50" version="1.1" xmlns="http://www.w3.org/2000/svg" xmlns:xlink="http://www.w3.org/1999/xlink" xml:space="preserve" xmlns:serif="http://www.serif.com/" style="fill-rule:evenodd;clip-rule:evenodd;stroke-linejoin:round;stroke-miterlimit:2;">
    <g transform="matrix(1,0,0,1,-290,-275)">
        <g transform="matrix(1.07208,0,0,1.07208,-28.7752,-21.5958)">
            <path d="M312.1,277.3L312.1,294.4L305.1,298.4L305.1,306.2L299.2,309.6L299.2,290.3C299.2,286.8 301.1,283.6 304.1,281.8L312.1,277.3Z" style="fill:rgb(0,83,251);fill-rule:nonzero;"/>
        </g>
        <g transform="matrix(1.07208,0,0,1.07208,-28.7752,-21.5958)">
            <path d="M321.4,293L321.4,300.5L315.5,303.9L314.4,304.5L314.4,312.4L308.5,315.8L308.5,300.5L312.1,298.4L315.5,296.4L321.4,293Z" style="fill:rgb(0,83,251);fill-rule:nonzero;"/>
        </g>
        <g transform="matrix(1.07208,0,0,1.07208,-28.7752,-21.5958)">
            <path d="M330.6,299.1L330.6,308.8C330.6,312.3 328.7,315.5 325.7,317.3L317.7,321.9L317.7,306.6L321.3,304.5L324.7,302.5L330.6,299.1Z" style="fill:rgb(0,83,251);fill-rule:nonzero;"/>
        </g>
        <g transform="matrix(1.07208,0,0,1.07208,-28.7752,-21.5958)">
            <g>
                <path d="M349.4,305.5L357.5,305.5L357.5,309.7L344.9,309.7L344.9,288.6L349.5,288.6L349.5,305.5L349.4,305.5Z" style="fill:rgb(12,13,95);fill-rule:nonzero;"/>
                <path d="M359.5,291.3L359.5,287.2L363.9,287.2L363.9,291.3L359.5,291.3ZM359.5,309.7L359.5,293.4L363.9,293.4L363.9,309.7L359.5,309.7Z" style="fill:rgb(12,13,95);fill-rule:nonzero;"/>
                <path d="M375.3,305.8L377.3,305.8L377.3,309.7L374.2,309.7C373,309.7 372,309.5 371.1,309C370.2,308.5 369.6,307.9 369.1,307C368.6,306.1 368.4,305.1 368.4,303.9L368.4,297L365.5,297L365.5,296L371.9,289.2L372.7,289.2L372.7,293.4L377.2,293.4L377.2,296.9L372.8,296.9L372.8,303.3C372.8,304.1 373,304.7 373.4,305.1C373.9,305.6 374.5,305.8 375.3,305.8Z" style="fill:rgb(12,13,95);fill-rule:nonzero;"/>
                <path d="M395.1,301.5C395.1,301.9 395.1,302.4 395,302.8L382.7,302.8C382.9,303.9 383.3,304.8 384,305.3C384.7,305.9 385.6,306.2 386.7,306.2C387.4,306.2 388.1,306 388.7,305.7C389.3,305.4 389.8,304.9 390.1,304.3L394.7,304.3C394.1,306.1 393.1,307.5 391.6,308.5C390.2,309.5 388.5,310.1 386.6,310.1C384.2,310.1 382.2,309.3 380.6,307.6C379,306 378.2,303.9 378.2,301.5C378.2,300.5 378.3,299.6 378.6,298.7C378.9,297.8 379.3,297 379.8,296.3C380.3,295.6 380.9,295 381.6,294.5C382.3,294 383.1,293.6 383.9,293.3C384.8,293 385.7,292.9 386.6,292.9C388.2,292.9 389.7,293.3 391,294C392.3,294.8 393.3,295.8 394,297.1C394.8,298.6 395.1,300 395.1,301.5ZM386.7,296.7C385.7,296.7 384.9,297 384.2,297.5C383.5,298 383.1,298.8 382.8,299.8L390.7,299.8C390.5,299.1 390.2,298.6 389.8,298.1C389.4,297.6 389,297.3 388.4,297.1C388,296.9 387.4,296.7 386.7,296.7Z" style="fill:rgb(12,13,95);fill-rule:nonzero;"/>
                <path d="M404.1,299.7C404.6,299.8 405,299.9 405.3,299.9C405.6,300 405.9,300 406.4,300.2C406.9,300.3 407.3,300.5 407.6,300.6C407.9,300.7 408.2,300.9 408.6,301.2C409,301.5 409.3,301.7 409.4,302C409.6,302.3 409.8,302.7 409.9,303.1C410,303.6 410.1,304 410.1,304.6C410.1,306.3 409.5,307.6 408.2,308.6C407,309.6 405.3,310.1 403.3,310.1C401.3,310.1 399.6,309.6 398.4,308.5C397.2,307.4 396.5,306 396.5,304.3L400.8,304.3C400.8,305 401.1,305.5 401.6,305.9C402.1,306.3 402.7,306.5 403.5,306.5C404.2,306.5 404.7,306.4 405.2,306.1C405.6,305.8 405.9,305.4 405.9,304.9C405.9,304.6 405.8,304.4 405.7,304.2C405.5,304 405.3,303.8 405,303.7C404.7,303.6 404.4,303.5 404,303.4C403.7,303.3 403.3,303.2 402.8,303.2C402.1,303.1 401.6,303 401.2,302.9C400.8,302.8 400.3,302.6 399.7,302.4C399.1,302.1 398.6,301.9 398.3,301.5C397.9,301.2 397.6,300.7 397.4,300.2C397.1,299.6 397,299 397,298.2C397,296.7 397.6,295.4 398.8,294.5C400,293.5 401.6,293.1 403.5,293.1C405.5,293.1 407,293.6 408.2,294.6C409.4,295.6 410,296.9 410,298.5L405.8,298.5C405.8,297.2 405,296.6 403.4,296.6C402.7,296.6 402.2,296.7 401.8,297C401.4,297.3 401.2,297.7 401.2,298.1C401.2,298.3 401.3,298.5 401.4,298.7C401.5,298.9 401.6,299 401.8,299.1C402,299.2 402.2,299.3 402.5,299.4C402.8,299.5 403.1,299.6 403.3,299.6C403.3,299.5 403.6,299.6 404.1,299.7ZM421.1,305.8L423.1,305.8L423.1,309.7L420,309.7C418.2,309.7 416.8,309.2 415.8,308.1C414.8,307.1 414.3,305.6 414.3,303.8L414.3,297L411.4,297L411.4,296L417.8,289.2L418.6,289.2L418.6,293.4L423.1,293.4L423.1,296.9L418.7,296.9L418.7,303.3C418.7,304.1 418.9,304.7 419.3,305.1C419.7,305.6 420.3,305.8 421.1,305.8Z" style="fill:rgb(12,13,95);fill-rule:nonzero;"/>
                <path d="M434,293.4L435.4,293.4L435.4,297.6L433.5,297.6C432.3,297.6 431.4,297.9 430.8,298.5C430.3,299.1 430,300 430,301.4L430,309.9L425.6,309.9L425.6,293.6L428.4,293.6L429.2,295.6C430.4,294.1 432,293.4 434,293.4Z" style="fill:rgb(12,13,95);fill-rule:nonzero;"/>
                <path d="M452.6,301.5C452.6,301.9 452.6,302.4 452.5,302.8L440.2,302.8C440.4,303.9 440.8,304.8 441.5,305.3C442.2,305.9 443.1,306.2 444.2,306.2C444.9,306.2 445.6,306 446.2,305.7C446.8,305.4 447.3,304.9 447.6,304.3L452.2,304.3C451.6,306.1 450.6,307.5 449.1,308.5C447.7,309.5 446,310.1 444.1,310.1C441.7,310.1 439.7,309.3 438.1,307.6C436.5,306 435.7,303.9 435.7,301.5C435.7,300.5 435.8,299.6 436.1,298.7C436.4,297.8 436.8,297 437.3,296.3C437.8,295.6 438.4,295 439.1,294.5C439.8,294 440.6,293.6 441.4,293.3C442.3,293 443.2,292.9 444.1,292.9C445.7,292.9 447.2,293.3 448.5,294C449.8,294.8 450.8,295.8 451.5,297.1C452.3,298.6 452.6,300 452.6,301.5ZM444.2,296.7C443.2,296.7 442.4,297 441.7,297.5C441,298 440.6,298.8 440.3,299.8L448.2,299.8C448,299.1 447.7,298.6 447.3,298.1C446.9,297.6 446.5,297.3 445.9,297.1C445.5,296.9 444.9,296.7 444.2,296.7Z" style="fill:rgb(12,13,95);fill-rule:nonzero;"/>
                <path d="M468.3,293.4L471.6,293.4L471.6,309.7L468.1,309.7L467.7,308.3C466.2,309.6 464.5,310.2 462.4,310.2C460,310.2 457.9,309.4 456.3,307.7C454.7,306.1 453.9,304 453.9,301.5C453.9,299.1 454.7,297 456.3,295.4C457.9,293.8 459.9,293 462.4,293C464.5,293 466.2,293.7 467.7,295L468.3,293.4ZM459.7,304.7C460.5,305.5 461.6,306 462.9,306C464.2,306 465.2,305.6 466.1,304.7C466.9,303.9 467.4,302.8 467.4,301.5C467.4,300.2 467,299.2 466.1,298.3C465.3,297.5 464.2,297 462.9,297C462.1,297 461.3,297.2 460.6,297.6C459.9,298 459.4,298.5 459,299.2C458.6,299.9 458.4,300.6 458.4,301.5C458.4,302.8 458.8,303.9 459.7,304.7Z" style="fill:rgb(12,13,95);fill-rule:nonzero;"/>
                <path d="M493.5,293.1C495.2,293.1 496.6,293.7 497.6,294.9C498.7,296.1 499.2,297.6 499.2,299.5L499.2,309.7L494.8,309.7L494.8,300.2C494.8,298 494,296.9 492.3,296.9C491.7,296.9 491.1,297.1 490.6,297.4C490.1,297.7 489.8,298.2 489.5,298.8C489.3,299.4 489.1,300.1 489.1,301L489.1,309.8L485,309.8L485,300.3C485,298.1 484.2,297 482.6,297C481.6,297 480.8,297.4 480.3,298.1C479.7,298.8 479.5,299.8 479.5,301L479.5,309.8L475,309.8L475,293.5L478.1,293.5L478.9,295.5C479.5,294.8 480.2,294.2 481.1,293.7C482,293.3 482.9,293.1 483.8,293.1C484.8,293.1 485.7,293.3 486.6,293.8C487.4,294.3 488.1,294.9 488.5,295.7C488.7,295.4 488.9,295.2 489.1,294.9C489.3,294.7 489.6,294.5 489.8,294.3C490.1,294.1 490.3,293.9 490.6,293.8C490.9,293.6 491.2,293.5 491.5,293.4C491.8,293.3 492.1,293.2 492.5,293.2C492.8,293.1 493.2,293.1 493.5,293.1Z" style="fill:rgb(12,13,95);fill-rule:nonzero;"/>
            </g>
        </g>
    </g>
</svg>
